<svg xmlns="http://www.w3.org/2000/svg" width="40" height="42" fill="none" viewBox="0 0 40 42">
  <path fill="#243659" d="M39.9998 38.7883c.0055-.3028-.0984-.4627-.3456-.614-4.2838-2.6213-8.5621-5.2516-12.8411-7.881-.1656-.1018-.3249-.2139-.4931-.3251.3708-1.018.7317-1.9924 1.0778-2.9722.0707-.1998.1214-.4198.1221-.6306.0084-2.4531.0009-4.9062.0115-7.3592.0012-.287-.0796-.43-.3446-.5541-3.0144-1.4131-6.0231-2.8386-9.027-4.2747-.2386-.1141-.4078-.0921-.6224.0311-1.063.6109-2.1331 1.209-3.2018 1.8094-.1182.0664-.2438.1192-.411.2001-.078-2.8875-.1545-5.7193-.2327-8.61616.2131.08971.3562.14554.4957.20947 5.1461 2.36059 10.2902 4.72579 15.4415 7.07429.3247.148.4329.3155.4316.6739-.0129 3.6723-.0047 7.3446-.0138 11.017-.0008.2969.0796.4677.3466.6094 3.0699 1.6289 6.1332 3.2709 9.1987 4.9084.1148.0613.2336.1145.3683.18V0C26.6329.0000871 13.3367.0000871.00768001.0000871V.461256c0 3.207804.00494129 6.415694-.00766744 9.623544-.00127791.3179.09473553.4845.36394843.6427C4.01562 12.8727 7.65988 15.0311 11.3055 17.187c.1296.0767.2551.1609.4261.2692-.9043.5091-1.75854.9663-2.58688 1.4683-.30363.184-.51866.1575-.80577-.019-2.63768-1.6208-5.28355-3.2279-7.927536-4.8381-.11612-.0707-.238288-.1309-.3849062-.211V42H39.9922c0-1.0953-.0122-2.1538.0076-3.2117zM22.329 27.5196c1.6626-2.8686 2.9378-4.8394 4.5732-7.6609.0356.0075.0712.015.1067.0225 0 .3534-.0018.7066.0003 1.0599.0128 2.1156.0126 3.3436.0241 5.4592.0005.0856-.0061.1771-.0348.2564-.3818 1.0552-.7072 1.9188-1.1102 3.0214-1.3039-.8032-2.2584-1.3571-3.5593-2.1585z" />
</svg>
